<?xml version="1.0" encoding="utf-8"?>
<!DOCTYPE svg PUBLIC "-//W3C//DTD SVG 1.1//EN" "http://www.w3.org/Graphics/SVG/1.1/DTD/svg11.dtd">
<svg xmlns="http://www.w3.org/2000/svg" xmlns:xlink="http://www.w3.org/1999/xlink" version="1.1" baseProfile="full" width="125" height="46" viewBox="0 0 125.00 46.00" enable-background="new 0 0 125.00 46.00" xml:space="preserve">
	<g>
		<path fill="#b9b9b9" fill-opacity="1" stroke-linejoin="round" d="M 21.7425,46C 17.9375,46 14.6262,45.3063 11.8087,43.9188C 8.99125,42.5313 6.83125,40.5625 5.32875,38.0125C 3.82625,35.4625 3.075,32.4975 3.075,29.1175C 3.075,24.4275 3.9625,20.265 5.7375,16.63C 7.5125,12.995 9.92,10.1813 12.96,8.18876C 16,6.19625 19.375,5.2 23.085,5.2C 26.545,5.2 29.17,6.07625 30.96,7.82875C 32.75,9.58125 33.645,11.895 33.645,14.77C 33.645,16.695 33.3012,18.2413 32.6137,19.4088C 31.9262,20.5763 30.9425,21.16 29.6625,21.16C 28.7675,21.16 28.0637,20.9513 27.5512,20.5338C 27.0387,20.1163 26.7825,19.505 26.7825,18.7C 26.7825,18.41 26.8475,17.88 26.9775,17.11C 27.1675,16.145 27.2625,15.375 27.2625,14.8C 27.2625,11.875 25.71,10.4125 22.605,10.4125C 20.495,10.4125 18.48,11.1038 16.56,12.4863C 14.64,13.8688 13.0875,15.9 11.9025,18.58C 10.7175,21.26 10.125,24.4475 10.125,28.1425C 10.125,31.9975 11.1975,34.9775 13.3425,37.0825C 15.4875,39.1875 18.655,40.24 22.845,40.24C 24.925,40.24 27.03,39.975 29.16,39.445C 31.29,38.915 33.65,38.105 36.24,37.015C 36.72,36.82 37.12,36.7225 37.44,36.7225C 37.95,36.7225 38.3337,36.915 38.5912,37.3C 38.8487,37.685 38.9775,38.1825 38.9775,38.7925C 38.9775,40.7475 37.92,42.1875 35.805,43.1125C 33.535,44.1075 31.1762,44.8375 28.7287,45.3025C 26.2812,45.7675 23.9525,46 21.7425,46 Z "/>
		<path fill="#b9b9b9" fill-opacity="1" stroke-linejoin="round" d="M 41.325,46C 39.345,46 37.7625,45.285 36.5775,43.855C 35.3925,42.425 34.8,40.5475 34.8,38.2225C 34.8,35.6825 35.3925,33.275 36.5775,31C 37.7625,28.725 39.3387,26.8963 41.3062,25.5138C 43.2737,24.1313 45.36,23.44 47.565,23.44C 48.27,23.44 48.7425,23.5713 48.9825,23.8338C 49.2225,24.0963 49.4225,24.5675 49.5825,25.2475C 50.2575,25.1225 50.9625,25.06 51.6975,25.06C 53.2625,25.06 54.045,25.62 54.045,26.74C 54.045,27.41 53.805,29.0075 53.325,31.5325C 52.59,35.2075 52.2225,37.765 52.2225,39.205C 52.2225,39.685 52.3425,40.0687 52.5825,40.3563C 52.8225,40.6437 53.135,40.7875 53.52,40.7875C 54.13,40.7875 54.8662,40.3925 55.7287,39.6025C 56.5912,38.8125 57.76,37.5325 59.235,35.7625C 59.615,35.3125 60.045,35.0875 60.525,35.0875C 60.945,35.0875 61.275,35.2788 61.515,35.6613C 61.755,36.0438 61.875,36.57 61.875,37.24C 61.875,38.515 61.57,39.505 60.96,40.21C 59.65,41.835 58.2587,43.2062 56.7862,44.3237C 55.3137,45.4412 53.89,46 52.515,46C 51.455,46 50.485,45.6437 49.605,44.9313C 48.725,44.2188 48.0625,43.245 47.6175,42.01C 45.9525,44.67 43.855,46 41.325,46 Z M 43.0575,41.2C 43.7625,41.2 44.435,40.7825 45.075,39.9475C 45.715,39.1125 46.1775,38.005 46.4625,36.625L 48.24,27.76C 46.895,27.76 45.655,28.2513 44.52,29.2338C 43.385,30.2163 42.4812,31.5138 41.8087,33.1263C 41.1362,34.7388 40.8,36.4475 40.8,38.2525C 40.8,39.2525 41,39.9938 41.4,40.4762C 41.8,40.9588 42.3525,41.2 43.0575,41.2 Z "/>
		<path fill="#b9b9b9" fill-opacity="1" stroke-linejoin="round" d="M 84.6225,35.11C 85.0375,35.11 85.365,35.3013 85.605,35.6838C 85.845,36.0662 85.965,36.5925 85.965,37.2625C 85.965,38.5325 85.6625,39.5175 85.0575,40.2175C 83.5825,41.9075 82.07,43.2938 80.52,44.3763C 78.97,45.4588 77.2025,46 75.2175,46C 73.5825,46 72.35,45.53 71.52,44.59C 70.69,43.65 70.275,42.285 70.275,40.495C 70.275,39.605 70.4975,38.01 70.9425,35.71C 71.3575,33.7 71.565,32.3125 71.565,31.5475C 71.565,31.0375 71.39,30.7825 71.04,30.7825C 70.625,30.7825 70.0337,31.3162 69.2662,32.3838C 68.4987,33.4513 67.73,34.8625 66.96,36.6175C 66.19,38.3725 65.565,40.225 65.085,42.175C 64.48,44.725 62.9775,46 60.5775,46C 59.6175,46 58.985,45.6538 58.68,44.9613C 58.375,44.2687 58.2225,43.0225 58.2225,41.2225C 58.2225,40.1925 58.24,39.3725 58.275,38.7625L 58.32,34.9C 58.32,29.945 58.8237,24.7813 59.8312,19.4088C 60.8387,14.0363 62.3262,9.52501 64.2937,5.875C 66.2612,2.22501 68.6225,0.400005 71.3775,0.400005C 72.8475,0.400005 74.0387,1.03875 74.9512,2.31625C 75.8637,3.59375 76.32,5.25 76.32,7.285C 76.32,10.55 75.3762,13.9363 73.4887,17.4438C 71.6012,20.9513 68.53,25.0475 64.275,29.7325C 64.175,31.3975 64.125,33.11 64.125,34.87C 65.185,32.15 66.3625,29.9338 67.6575,28.2213C 68.9525,26.5088 70.2325,25.2838 71.4975,24.5463C 72.7625,23.8088 73.9225,23.44 74.9775,23.44C 77.0575,23.44 78.0975,24.48 78.0975,26.56C 78.0975,27.81 77.745,30.07 77.04,33.34C 76.43,36.125 76.125,37.9675 76.125,38.8675C 76.125,40.1475 76.59,40.7875 77.52,40.7875C 78.16,40.7875 78.92,40.395 79.8,39.61C 80.68,38.825 81.855,37.55 83.325,35.785C 83.71,35.335 84.1425,35.11 84.6225,35.11 Z M 70.365,5.2C 69.79,5.2 69.1512,6.0375 68.4487,7.71251C 67.7462,9.3875 67.0662,11.6488 66.4087,14.4963C 65.7512,17.3438 65.215,20.4425 64.8,23.7925C 66.785,21.4175 68.425,18.8313 69.72,16.0338C 71.015,13.2363 71.6625,10.6975 71.6625,8.4175C 71.6625,7.3775 71.5512,6.58125 71.3287,6.02875C 71.1062,5.47625 70.785,5.2 70.365,5.2 Z "/>
		<path fill="#b9b9b9" fill-opacity="1" stroke-linejoin="round" d="M 103.395,35.1175C 103.81,35.1175 104.137,35.3088 104.377,35.6912C 104.617,36.0737 104.737,36.5975 104.737,37.2625C 104.737,38.5375 104.432,39.525 103.822,40.225C 102.637,41.655 100.965,42.975 98.805,44.185C 96.645,45.395 94.335,46 91.875,46C 88.515,46 85.9063,45.09 84.0487,43.27C 82.1912,41.45 81.2625,38.96 81.2625,35.8C 81.2625,33.595 81.7262,31.5425 82.6537,29.6425C 83.5812,27.7425 84.87,26.2338 86.52,25.1163C 88.17,23.9988 90.035,23.44 92.115,23.44C 93.97,23.44 95.4575,23.9925 96.5775,25.0975C 97.6975,26.2025 98.2575,27.7 98.2575,29.59C 98.2575,31.795 97.465,33.69 95.88,35.275C 94.295,36.86 91.615,38.1175 87.84,39.0475C 88.64,40.4825 90.16,41.2 92.4,41.2C 93.84,41.2 95.48,40.7013 97.32,39.7038C 99.16,38.7062 100.752,37.4 102.097,35.785C 102.482,35.34 102.915,35.1175 103.395,35.1175 Z M 91.2975,28.24C 90.1125,28.24 89.1125,28.9288 88.2975,30.3063C 87.4825,31.6838 87.075,33.35 87.075,35.305L 87.075,35.395C 88.96,34.95 90.4463,34.2788 91.5337,33.3813C 92.6212,32.4837 93.165,31.4425 93.165,30.2575C 93.165,29.6475 92.9975,29.1588 92.6625,28.7913C 92.3275,28.4238 91.8725,28.24 91.2975,28.24 Z "/>
		<path fill="#b9b9b9" fill-opacity="1" stroke-linejoin="round" d="M 122.115,35.1175C 122.53,35.1175 122.857,35.3088 123.097,35.6912C 123.337,36.0737 123.457,36.5975 123.457,37.2625C 123.457,38.5375 123.152,39.525 122.542,40.225C 121.357,41.655 119.685,42.975 117.525,44.185C 115.365,45.395 113.055,46 110.595,46C 107.235,46 104.626,45.09 102.769,43.27C 100.911,41.45 99.9825,38.96 99.9825,35.8C 99.9825,33.595 100.446,31.5425 101.374,29.6425C 102.301,27.7425 103.59,26.2338 105.24,25.1163C 106.89,23.9988 108.755,23.44 110.835,23.44C 112.69,23.44 114.177,23.9925 115.297,25.0975C 116.417,26.2025 116.978,27.7 116.978,29.59C 116.978,31.795 116.185,33.69 114.6,35.275C 113.015,36.86 110.335,38.1175 106.56,39.0475C 107.36,40.4825 108.88,41.2 111.12,41.2C 112.56,41.2 114.2,40.7013 116.04,39.7038C 117.88,38.7062 119.472,37.4 120.817,35.785C 121.202,35.34 121.635,35.1175 122.115,35.1175 Z M 110.017,28.24C 108.832,28.24 107.832,28.9288 107.017,30.3063C 106.202,31.6838 105.795,33.35 105.795,35.305L 105.795,35.395C 107.68,34.95 109.166,34.2788 110.254,33.3813C 111.341,32.4837 111.885,31.4425 111.885,30.2575C 111.885,29.6475 111.717,29.1588 111.382,28.7913C 111.047,28.4238 110.592,28.24 110.017,28.24 Z "/>
	</g>
</svg>
